# xmcd
#
# Track frame offsets:
#	150
#	21423
#	41003
#	63061
#	81799
#	102017
#	119679
#	138854
#	156196
#	173188
#	190697
#	208284
#	226469
#	244907
#	262713
#	282615
#	300218
#
# Disc length: 4242 seconds
#
# Revision: 1
# Processed by: cddbd v1.5.2PL0 Copyright (c) Steve Scherf et al.
# Submitted via: audiograbber 1.83.01
#
DISCID=e6109011
DTITLE=Various Artist - CB2007
DYEAR=2007
DGENRE=Karaoke
TTITLE0=Rascal Flattsr - Life Is A Highway
TTITLE1=Strait, George - Wrapped
TTITLE2=Underwood, Carrie - Wasted
TTITLE3=Nichols, Joe - I'll Wait For You
TTITLE4=Jackson, Alan - Woman's Love, A
TTITLE5=McEntire, Reba and Kelly Clarkson - Because Of You
TTITLE6=Paisley, Brad - Ticks
TTITLE7=Swift, Taylor - Teardrops On My Guitar
TTITLE8=Atkins, Rodney - These Are My People
TTITLE9=Wilson, Gretchen - One Of The Boys
TTITLE10=McGraw, Tim - My Little Girl
TTITLE11=Brooks and Dunn - Hillbilly Deluxe
TTITLE12=Sugarland - Everyday America
TTITLE13=Bentley, Dierks - Long Trip Alone
TTITLE14=Hill, Faith - Lost
TTITLE15=Big and Rich - Lost In This Moment
TTITLE16=Ingram, Jack - Lips Of An Angel
EXTD=
EXTT0=
EXTT1=
EXTT2=
EXTT3=
EXTT4=
EXTT5=
EXTT6=
EXTT7=
EXTT8=
EXTT9=
EXTT10=
EXTT11=
EXTT12=
EXTT13=
EXTT14=
EXTT15=
EXTT16=
PLAYORDER=
